<svg width="229" height="248" viewBox="0 0 229 248" fill="none" xmlns="http://www.w3.org/2000/svg">
<g clip-path="url(#clip0_1_406)">
<path d="M228.968 50.7557L229 50.2363L114.512 109.611L0.0162279 50.2363H0L0.0324558 50.6827L113.612 110.909L114.293 247.862L114.512 248L114.715 247.862L115.388 110.926L228.968 50.7557Z" fill="url(#paint0_radial_1_406)"/>
<path d="M4.51113 127.603L7.3429 176.208L47.5556 203.144L72.644 219.952C72.6034 218.499 72.5628 217.047 72.5222 215.586L74.7779 217.095L89.3181 226.842C89.3425 228.287 89.3668 229.732 89.383 231.184L114.285 247.862L113.611 110.917L0.0322266 50.6826L1.66313 78.7711C2.88834 79.4772 4.11354 80.1751 5.34686 80.8812L6.33677 97.8106L6.49093 100.513C5.25761 99.7665 4.0324 99.0279 2.79908 98.2813L4.50301 127.603H4.51113Z" fill="url(#paint1_radial_1_406)"/>
<path d="M181.566 203.079L221.673 176.208L224.497 127.668L226.201 98.3462C224.967 99.0928 223.734 99.8395 222.517 100.594L222.671 97.8917L223.645 80.9461L227.337 78.836L228.968 50.7556L115.38 110.926L114.707 247.862L139.714 231.111C139.739 229.658 139.763 228.214 139.787 226.761L154.352 217.014L156.607 215.505C156.575 216.957 156.526 218.41 156.494 219.871L181.574 203.071L181.566 203.079Z" fill="url(#paint2_radial_1_406)"/>
<path d="M73.1634 18.1386L46.0465 30.0363C47.4421 30.718 48.8377 31.3916 50.2333 32.0733L32.0419 40.0592C30.6544 39.3693 29.2831 38.6795 27.9038 37.9978L0.0161133 50.2363L114.512 109.611L229 50.2363L201.12 38.0059C199.733 38.6957 198.362 39.3774 196.974 40.0673L178.758 32.0814C180.162 31.3997 181.558 30.718 182.961 30.0444L155.836 18.1386L114.512 0L73.1634 18.1386Z" fill="url(#paint3_radial_1_406)"/>
<path d="M114.383 40.3757L141.629 53.0362L119.56 42.7455L114.383 40.3757Z" fill="url(#paint4_radial_1_406)"/>
<path d="M43.426 120.381L43.1176 120.178L36.0585 115.909C26.1433 109.854 16.2361 103.833 6.32088 97.8026L6.22352 96.1794L4.9334 96.9586L2.7832 98.2571C4.01652 99.0199 5.24173 99.7585 6.47505 100.505C15.9521 106.259 25.4211 112.021 34.8982 117.8C37.6813 119.48 40.4725 121.176 43.2394 122.864L45.9007 121.89C45.0812 121.379 44.2455 120.867 43.426 120.381Z" fill="url(#paint5_radial_1_406)"/>
<path d="M47.3128 151.699C47.1992 149.297 47.0856 146.903 46.972 144.5C46.6474 137.87 46.331 131.215 46.0226 124.576C45.9821 123.684 45.9334 122.791 45.8928 121.906L43.2314 122.88C43.5722 130.136 43.913 137.391 44.2619 144.646C44.4323 148.25 44.6027 151.861 44.7569 155.465L47.402 153.963L47.3046 151.699H47.3128Z" fill="url(#paint6_radial_1_406)"/>
<path d="M71.1996 169.675C67.3779 167.16 63.5644 164.644 59.7589 162.112C55.6452 159.409 51.5476 156.682 47.4176 153.963L44.7725 155.465C53.6248 161.308 62.4446 167.143 71.3051 172.987L73.4796 171.177C72.7169 170.682 71.9623 170.17 71.1996 169.675Z" fill="url(#paint7_radial_1_406)"/>
<path d="M74.2919 200.182L73.7726 181.743C73.6996 179.325 73.6266 176.906 73.5698 174.488C73.5292 173.384 73.4967 172.28 73.4724 171.177L71.2979 172.987C71.379 175.924 71.4682 178.854 71.5494 181.8C71.8577 193.057 72.1823 204.329 72.5068 215.586C72.5474 217.039 72.5799 218.483 72.6366 219.952L74.8112 218.564L75.9147 217.858L74.7706 217.112C74.6165 211.455 74.4461 205.823 74.2919 200.182Z" fill="url(#paint8_radial_1_406)"/>
<path d="M155.545 174.399C155.455 177.296 155.39 180.201 155.301 183.099L155.05 191.653C154.806 200.109 154.571 208.566 154.327 217.03L152.899 217.988L154.287 218.71L156.478 219.871C156.518 218.41 156.559 216.957 156.607 215.513C156.908 204.711 157.216 193.941 157.524 183.164C157.622 179.739 157.719 176.314 157.825 172.897L155.65 171.087C155.626 172.191 155.593 173.295 155.553 174.399H155.545Z" fill="url(#paint9_radial_1_406)"/>
<path d="M178.977 155.684L173.435 159.336L160.932 167.598C159.926 168.263 158.928 168.929 157.922 169.594C157.159 170.089 156.396 170.601 155.642 171.096L157.816 172.906C163.512 169.132 169.224 165.366 174.928 161.6C177.914 159.604 180.925 157.624 183.919 155.643L181.29 154.158L178.969 155.684H178.977Z" fill="url(#paint10_radial_1_406)"/>
<path d="M182.669 124.828L182.077 137.545L181.298 154.166L183.927 155.651C184.422 144.817 184.941 133.982 185.452 123.148L182.783 122.158L182.669 124.828Z" fill="url(#paint11_radial_1_406)"/>
<path d="M223.945 97.1048L222.744 96.4636L222.663 97.892L208.95 106.219L193.055 115.909C190.564 117.418 188.065 118.936 185.574 120.446C184.641 121.014 183.724 121.574 182.791 122.142L185.461 123.132C188.39 121.355 191.303 119.569 194.232 117.8C203.652 112.054 213.08 106.332 222.509 100.586C223.742 99.8235 224.967 99.085 226.217 98.3384L223.953 97.0966L223.945 97.1048Z" fill="url(#paint12_radial_1_406)"/>
<path d="M181.436 33.242L182.962 33.9075V30.0444C181.55 30.7262 180.146 31.3998 178.759 32.0652C169.436 36.5614 160.105 41.0493 150.814 45.5617C147.763 47.0306 144.688 48.5158 141.621 49.9847V53.0281C142.668 52.5331 181.428 33.242 181.428 33.242H181.436Z" fill="url(#paint13_radial_1_406)"/>
<path d="M119.56 42.7455L141.629 53.0281V49.9847C135.52 47.1523 129.41 44.328 123.292 41.4956C120.338 40.1079 117.369 38.7525 114.383 37.3647V40.3594L119.56 42.7373V42.7455Z" fill="url(#paint14_radial_1_406)"/>
<path d="M87.1355 52.8821V49.9523C83.9873 48.4266 80.831 46.9008 77.6666 45.367C68.514 40.9439 59.3696 36.4965 50.2171 32.0734C48.8134 31.4079 47.434 30.7262 46.0303 30.0364V33.9076L47.5557 33.2583C57.2519 37.9654 86.0888 52.3546 87.1355 52.8821Z" fill="url(#paint15_radial_1_406)"/>
<path d="M114.382 40.3758V37.3811C105.303 41.585 96.2234 45.7646 87.1357 49.9523V52.8821C87.9958 52.4845 106.358 44.0847 114.382 40.3758Z" fill="url(#paint16_radial_1_406)"/>
<path d="M88.6049 184.414C88.5887 183.326 88.5643 182.238 88.5643 181.143C88.5075 178.627 88.4751 176.103 88.4345 173.587C88.3615 169.813 88.3047 166.023 88.2398 162.241C86.9253 161.422 85.6271 160.602 84.3126 159.782C80.5234 157.421 76.7342 155.043 72.9612 152.681C72.1985 152.21 71.4439 151.748 70.6974 151.269C67.6303 149.362 64.5633 147.438 61.5043 145.523C61.3745 141.579 61.2365 137.643 61.0986 133.715C61.0743 132.822 61.0418 131.929 61.0012 131.053C60.7903 124.812 60.5793 118.595 60.3683 112.37C57.5122 110.731 54.6561 109.1 51.8 107.46C49.5525 106.178 47.3211 104.888 45.0654 103.597C44.1323 103.078 43.1992 102.534 42.2661 101.998C33.4544 96.9667 24.6507 91.9187 15.839 86.8626C12.35 84.858 8.83665 82.8616 5.34766 80.8489L6.24019 96.1632L6.33756 97.7864C16.2528 103.808 26.1599 109.838 36.0752 115.893L43.1343 120.161L43.4426 120.364C44.2622 120.859 45.0979 121.371 45.9174 121.874C45.958 122.767 45.9985 123.659 46.0472 124.544C46.3556 131.191 46.672 137.837 46.9966 144.468C47.1101 146.87 47.2238 149.264 47.3373 151.667L47.4347 153.931C51.5647 156.65 55.6623 159.377 59.776 162.079C63.5815 164.611 67.395 167.127 71.2167 169.643C71.9794 170.138 72.7259 170.649 73.4967 171.144C73.5211 172.248 73.5535 173.352 73.5941 174.456C73.6509 176.874 73.7239 179.292 73.7969 181.711L74.3162 200.15C74.4704 205.79 74.6408 211.423 74.7949 217.079L75.939 217.826L89.327 226.81C89.2702 223.231 89.1972 219.652 89.1566 216.073C88.97 205.49 88.7915 194.94 88.6211 184.381L88.6049 184.414Z" fill="url(#paint17_radial_1_406)"/>
<path d="M155.049 191.653L155.301 183.099C155.39 180.201 155.455 177.296 155.544 174.399C155.585 173.295 155.617 172.191 155.642 171.088C156.388 170.592 157.159 170.081 157.922 169.586C158.928 168.921 159.926 168.255 160.932 167.59L173.436 159.328L178.977 155.676L181.298 154.15L182.077 137.529L182.669 124.812L182.783 122.142C183.716 121.574 184.633 121.005 185.566 120.445C188.057 118.928 190.556 117.418 193.047 115.909L208.942 106.219L222.655 97.8919L222.736 96.4635L223.645 80.9463L222.29 81.7092C210.354 88.5588 198.378 95.4166 186.426 102.258C186.386 102.291 186.353 102.299 186.312 102.331C185.42 102.842 184.527 103.354 183.643 103.857C178.653 106.714 173.663 109.57 168.665 112.427C168.454 118.92 168.243 125.453 168.056 131.085C168.024 132.002 167.999 132.879 167.967 133.747C167.796 138.99 167.659 143.226 167.577 145.531C164.535 147.438 161.484 149.337 158.441 151.245C157.678 151.707 156.924 152.194 156.161 152.673C151.057 155.854 145.97 159.052 140.858 162.25C140.818 165.082 140.761 167.89 140.72 170.722C140.663 174.172 140.607 177.621 140.55 181.078C140.517 182.165 140.509 183.253 140.493 184.349C140.339 193.357 140.193 202.366 140.039 211.39C139.966 216.527 139.868 221.632 139.787 226.761L152.899 217.996L154.327 217.039C154.571 208.582 154.806 200.126 155.049 191.661V191.653Z" fill="url(#paint18_radial_1_406)"/>
<path d="M150.992 62.9132C152.94 61.9556 154.895 60.9736 156.851 59.9997C157.881 59.4884 158.912 58.9852 159.95 58.4577C169.241 53.848 178.547 49.2058 187.846 44.5961C190.881 43.0784 193.923 41.5851 196.982 40.0594L182.97 33.9077L181.444 33.2422C181.444 33.2422 142.684 52.5332 141.637 53.0283L114.39 40.3678C106.358 44.0767 88.0039 52.4764 87.1438 52.8741C86.0971 52.3547 57.2683 37.9655 47.564 33.2503L46.0386 33.8996L32.042 40.0513C41.2594 44.6285 50.485 49.2301 59.6862 53.8236C62.7289 55.3413 65.7717 56.8508 68.8063 58.3766C69.853 58.8878 70.8997 59.4073 71.9302 59.9348C77.0338 62.4831 82.1294 65.0152 87.2168 67.5473C88.6287 66.8818 90.0324 66.2001 91.4442 65.5427C95.274 63.7167 99.1119 61.8907 102.958 60.0727C103.81 59.6588 104.67 59.2531 105.53 58.8554C108.467 57.4514 111.413 56.0555 114.366 54.6514C117.303 56.0555 120.249 57.4676 123.202 58.8797C124.062 59.2774 124.93 59.6832 125.791 60.1133C131.032 62.6048 136.282 65.1207 141.54 67.6204C144.696 66.054 147.844 64.4796 151.001 62.9132H150.992Z" fill="url(#paint19_radial_1_406)"/>
</g>
<defs>
<radialGradient id="paint0_radial_1_406" cx="0" cy="0" r="1" gradientUnits="userSpaceOnUse" gradientTransform="translate(114.504 109.611) scale(1066.14 1066.37)">
<stop stop-color="white"/>
<stop offset="0.34" stop-color="#D6BD94"/>
<stop offset="0.42" stop-color="#CAAF85"/>
<stop offset="0.56" stop-color="#AC8A61"/>
<stop offset="0.69" stop-color="#8B6339"/>
<stop offset="1"/>
</radialGradient>
<radialGradient id="paint1_radial_1_406" cx="0" cy="0" r="1" gradientUnits="userSpaceOnUse" gradientTransform="translate(-79.2167 233.465) scale(399.166 399.253)">
<stop stop-color="white"/>
<stop offset="0.34" stop-color="#D6BD94"/>
<stop offset="0.42" stop-color="#CAAF85"/>
<stop offset="0.56" stop-color="#AC8A61"/>
<stop offset="0.69" stop-color="#8B6339"/>
<stop offset="1"/>
</radialGradient>
<radialGradient id="paint2_radial_1_406" cx="0" cy="0" r="1" gradientUnits="userSpaceOnUse" gradientTransform="translate(284.605 220.918) scale(267.85 267.908)">
<stop stop-color="white"/>
<stop offset="0.34" stop-color="#D6BD94"/>
<stop offset="0.42" stop-color="#CAAF85"/>
<stop offset="0.56" stop-color="#AC8A61"/>
<stop offset="0.69" stop-color="#8B6339"/>
<stop offset="1"/>
</radialGradient>
<radialGradient id="paint3_radial_1_406" cx="0" cy="0" r="1" gradientUnits="userSpaceOnUse" gradientTransform="translate(101.651 -54.0993) scale(448.807 448.905)">
<stop stop-color="white"/>
<stop offset="0.34" stop-color="#D6BD94"/>
<stop offset="0.42" stop-color="#CAAF85"/>
<stop offset="0.56" stop-color="#AC8A61"/>
<stop offset="0.69" stop-color="#8B6339"/>
<stop offset="1"/>
</radialGradient>
<radialGradient id="paint4_radial_1_406" cx="0" cy="0" r="1" gradientUnits="userSpaceOnUse" gradientTransform="translate(115.868 47.0955) scale(101.814 101.836)">
<stop stop-color="white"/>
<stop offset="0.31" stop-color="#F7EC30"/>
<stop offset="0.57" stop-color="#F69220"/>
<stop offset="0.61" stop-color="#EE8D1E"/>
<stop offset="0.67" stop-color="#D8801C"/>
<stop offset="0.74" stop-color="#B56B17"/>
<stop offset="0.82" stop-color="#844E11"/>
<stop offset="0.91" stop-color="#452909"/>
<stop offset="1"/>
</radialGradient>
<radialGradient id="paint5_radial_1_406" cx="0" cy="0" r="1" gradientUnits="userSpaceOnUse" gradientTransform="translate(63.5405 102.729) scale(78.1779 78.1949)">
<stop stop-color="white"/>
<stop offset="0.31" stop-color="#F7EC30"/>
<stop offset="0.57" stop-color="#F69220"/>
<stop offset="0.61" stop-color="#EE8D1E"/>
<stop offset="0.67" stop-color="#D8801C"/>
<stop offset="0.74" stop-color="#B56B17"/>
<stop offset="0.82" stop-color="#844E11"/>
<stop offset="0.91" stop-color="#452909"/>
<stop offset="1"/>
</radialGradient>
<radialGradient id="paint6_radial_1_406" cx="0" cy="0" r="1" gradientUnits="userSpaceOnUse" gradientTransform="translate(53.6416 146.57) scale(156.007 156.041)">
<stop stop-color="white"/>
<stop offset="0.31" stop-color="#F7EC30"/>
<stop offset="0.57" stop-color="#F69220"/>
<stop offset="0.61" stop-color="#EE8D1E"/>
<stop offset="0.67" stop-color="#D8801C"/>
<stop offset="0.74" stop-color="#B56B17"/>
<stop offset="0.82" stop-color="#844E11"/>
<stop offset="0.91" stop-color="#452909"/>
<stop offset="1"/>
</radialGradient>
<radialGradient id="paint7_radial_1_406" cx="0" cy="0" r="1" gradientUnits="userSpaceOnUse" gradientTransform="translate(53.641 146.57) scale(156.023 156.057)">
<stop stop-color="white"/>
<stop offset="0.31" stop-color="#F7EC30"/>
<stop offset="0.57" stop-color="#F69220"/>
<stop offset="0.61" stop-color="#EE8D1E"/>
<stop offset="0.67" stop-color="#D8801C"/>
<stop offset="0.74" stop-color="#B56B17"/>
<stop offset="0.82" stop-color="#844E11"/>
<stop offset="0.91" stop-color="#452909"/>
<stop offset="1"/>
</radialGradient>
<radialGradient id="paint8_radial_1_406" cx="0" cy="0" r="1" gradientUnits="userSpaceOnUse" gradientTransform="translate(98.8934 174.861) scale(72.6847 72.7006)">
<stop stop-color="white"/>
<stop offset="0.31" stop-color="#F7EC30"/>
<stop offset="0.57" stop-color="#F69220"/>
<stop offset="0.61" stop-color="#EE8D1E"/>
<stop offset="0.67" stop-color="#D8801C"/>
<stop offset="0.74" stop-color="#B56B17"/>
<stop offset="0.82" stop-color="#844E11"/>
<stop offset="0.91" stop-color="#452909"/>
<stop offset="1"/>
</radialGradient>
<radialGradient id="paint9_radial_1_406" cx="0" cy="0" r="1" gradientUnits="userSpaceOnUse" gradientTransform="translate(138.254 178.156) scale(61.6091 61.6226)">
<stop stop-color="white"/>
<stop offset="0.31" stop-color="#F7EC30"/>
<stop offset="0.57" stop-color="#F69220"/>
<stop offset="0.61" stop-color="#EE8D1E"/>
<stop offset="0.67" stop-color="#D8801C"/>
<stop offset="0.74" stop-color="#B56B17"/>
<stop offset="0.82" stop-color="#844E11"/>
<stop offset="0.91" stop-color="#452909"/>
<stop offset="1"/>
</radialGradient>
<radialGradient id="paint10_radial_1_406" cx="0" cy="0" r="1" gradientUnits="userSpaceOnUse" gradientTransform="translate(177.135 156.471) scale(115.843 115.868)">
<stop stop-color="white"/>
<stop offset="0.31" stop-color="#F7EC30"/>
<stop offset="0.57" stop-color="#F69220"/>
<stop offset="0.61" stop-color="#EE8D1E"/>
<stop offset="0.67" stop-color="#D8801C"/>
<stop offset="0.74" stop-color="#B56B17"/>
<stop offset="0.82" stop-color="#844E11"/>
<stop offset="0.91" stop-color="#452909"/>
<stop offset="1"/>
</radialGradient>
<radialGradient id="paint11_radial_1_406" cx="0" cy="0" r="1" gradientUnits="userSpaceOnUse" gradientTransform="translate(177.144 156.471) scale(115.802 115.827)">
<stop stop-color="white"/>
<stop offset="0.31" stop-color="#F7EC30"/>
<stop offset="0.57" stop-color="#F69220"/>
<stop offset="0.61" stop-color="#EE8D1E"/>
<stop offset="0.67" stop-color="#D8801C"/>
<stop offset="0.74" stop-color="#B56B17"/>
<stop offset="0.82" stop-color="#844E11"/>
<stop offset="0.91" stop-color="#452909"/>
<stop offset="1"/>
</radialGradient>
<radialGradient id="paint12_radial_1_406" cx="0" cy="0" r="1" gradientUnits="userSpaceOnUse" gradientTransform="translate(183.497 99.3122) scale(53.1382 53.1498)">
<stop stop-color="white"/>
<stop offset="0.31" stop-color="#F7EC30"/>
<stop offset="0.57" stop-color="#F69220"/>
<stop offset="0.61" stop-color="#EE8D1E"/>
<stop offset="0.67" stop-color="#D8801C"/>
<stop offset="0.74" stop-color="#B56B17"/>
<stop offset="0.82" stop-color="#844E11"/>
<stop offset="0.91" stop-color="#452909"/>
<stop offset="1"/>
</radialGradient>
<radialGradient id="paint13_radial_1_406" cx="0" cy="0" r="1" gradientUnits="userSpaceOnUse" gradientTransform="translate(179.035 58.1735) scale(26.5975 26.6033)">
<stop stop-color="white"/>
<stop offset="0.31" stop-color="#F7EC30"/>
<stop offset="0.57" stop-color="#F69220"/>
<stop offset="0.61" stop-color="#EE8D1E"/>
<stop offset="0.67" stop-color="#D8801C"/>
<stop offset="0.74" stop-color="#B56B17"/>
<stop offset="0.82" stop-color="#844E11"/>
<stop offset="0.91" stop-color="#452909"/>
<stop offset="1"/>
</radialGradient>
<radialGradient id="paint14_radial_1_406" cx="0" cy="0" r="1" gradientUnits="userSpaceOnUse" gradientTransform="translate(150.741 21.6365) scale(31.0277 31.0345)">
<stop stop-color="white"/>
<stop offset="0.31" stop-color="#F7EC30"/>
<stop offset="0.57" stop-color="#F69220"/>
<stop offset="0.61" stop-color="#EE8D1E"/>
<stop offset="0.67" stop-color="#D8801C"/>
<stop offset="0.74" stop-color="#B56B17"/>
<stop offset="0.82" stop-color="#844E11"/>
<stop offset="0.91" stop-color="#452909"/>
<stop offset="1"/>
</radialGradient>
<radialGradient id="paint15_radial_1_406" cx="0" cy="0" r="1" gradientUnits="userSpaceOnUse" gradientTransform="translate(43.2796 66.6626) scale(38.9956 39.0041)">
<stop stop-color="white"/>
<stop offset="0.31" stop-color="#F7EC30"/>
<stop offset="0.57" stop-color="#F69220"/>
<stop offset="0.61" stop-color="#EE8D1E"/>
<stop offset="0.67" stop-color="#D8801C"/>
<stop offset="0.74" stop-color="#B56B17"/>
<stop offset="0.82" stop-color="#844E11"/>
<stop offset="0.91" stop-color="#452909"/>
<stop offset="1"/>
</radialGradient>
<radialGradient id="paint16_radial_1_406" cx="0" cy="0" r="1" gradientUnits="userSpaceOnUse" gradientTransform="translate(89.6998 23.0488) scale(29.0885 29.0948)">
<stop stop-color="white"/>
<stop offset="0.31" stop-color="#F7EC30"/>
<stop offset="0.57" stop-color="#F69220"/>
<stop offset="0.61" stop-color="#EE8D1E"/>
<stop offset="0.67" stop-color="#D8801C"/>
<stop offset="0.74" stop-color="#B56B17"/>
<stop offset="0.82" stop-color="#844E11"/>
<stop offset="0.91" stop-color="#452909"/>
<stop offset="1"/>
</radialGradient>
<radialGradient id="paint17_radial_1_406" cx="0" cy="0" r="1" gradientUnits="userSpaceOnUse" gradientTransform="translate(75.5 143.5) rotate(108.678) scale(87.9414 50.5975)">
<stop stop-color="#83E1FF"/>
<stop offset="1" stop-color="white"/>
</radialGradient>
<radialGradient id="paint18_radial_1_406" cx="0" cy="0" r="1" gradientUnits="userSpaceOnUse" gradientTransform="translate(169 160.5) rotate(79.1367) scale(67.4705 38.802)">
<stop stop-color="#83E1FF"/>
<stop offset="1" stop-color="white"/>
</radialGradient>
<radialGradient id="paint19_radial_1_406" cx="0" cy="0" r="1" gradientUnits="userSpaceOnUse" gradientTransform="translate(115 25) rotate(90) scale(50 239.891)">
<stop offset="0.317708" stop-color="white"/>
<stop offset="1" stop-color="#83E1FF"/>
</radialGradient>
<clipPath id="clip0_1_406">
<rect width="229" height="248" fill="white"/>
</clipPath>
</defs>
</svg>
