<svg width="17" height="18" viewBox="0 0 17 18" fill="none" xmlns="http://www.w3.org/2000/svg">
<g id="filters-2-svgrepo-com 1">
<path id="Vector" d="M2.83337 4.04167H7.08337M7.08337 4.04167C7.08337 4.82407 7.71762 5.45833 8.50004 5.45833C9.28247 5.45833 9.91671 4.82407 9.91671 4.04167M7.08337 4.04167C7.08337 3.25926 7.71762 2.625 8.50004 2.625C9.28247 2.625 9.91671 3.25926 9.91671 4.04167M9.91671 4.04167H14.1667M2.83337 9H11.3334M11.3334 9C11.3334 9.78242 11.9676 10.4167 12.75 10.4167C13.5325 10.4167 14.1667 9.78242 14.1667 9C14.1667 8.21757 13.5325 7.58333 12.75 7.58333C11.9676 7.58333 11.3334 8.21757 11.3334 9ZM5.66671 13.9583H14.1667M5.66671 13.9583C5.66671 13.1759 5.03244 12.5417 4.25004 12.5417C3.46764 12.5417 2.83337 13.1759 2.83337 13.9583C2.83337 14.7408 3.46764 15.375 4.25004 15.375C5.03244 15.375 5.66671 14.7408 5.66671 13.9583Z" stroke="white" stroke-width="1.0625" stroke-linecap="round"/>
</g>
</svg>
