<svg width="21" height="23" viewBox="0 0 21 23" fill="none" xmlns="http://www.w3.org/2000/svg">
<g id="instagram logo" clip-path="url(#clip0_1_1924)">
<path id="Vector" d="M10.5082 6.6407C7.75624 6.6407 5.53647 8.82579 5.53647 11.5348C5.53647 14.2438 7.75624 16.4289 10.5082 16.4289C13.2602 16.4289 15.48 14.2438 15.48 11.5348C15.48 8.82579 13.2602 6.6407 10.5082 6.6407ZM10.5082 14.7166C8.72982 14.7166 7.27593 13.2897 7.27593 11.5348C7.27593 9.7799 8.72549 8.35299 10.5082 8.35299C12.291 8.35299 13.7405 9.7799 13.7405 11.5348C13.7405 13.2897 12.2866 14.7166 10.5082 14.7166ZM16.843 6.44051C16.843 7.07516 16.3238 7.58203 15.6834 7.58203C15.0386 7.58203 14.5237 7.0709 14.5237 6.44051C14.5237 5.81011 15.043 5.29898 15.6834 5.29898C16.3238 5.29898 16.843 5.81011 16.843 6.44051ZM20.1359 7.59907C20.0623 6.06994 19.7075 4.71544 18.5695 3.59948C17.4358 2.48351 16.0598 2.13423 14.5064 2.05756C12.9054 1.96812 8.10673 1.96812 6.50572 2.05756C4.95665 2.12997 3.58065 2.47925 2.44264 3.59522C1.30463 4.71118 0.954143 6.06568 0.876256 7.59481C0.785389 9.1708 0.785389 13.8945 0.876256 15.4705C0.949816 16.9996 1.30463 18.3541 2.44264 19.4701C3.58065 20.586 4.95232 20.9353 6.50572 21.012C8.10673 21.1014 12.9054 21.1014 14.5064 21.012C16.0598 20.9396 17.4358 20.5903 18.5695 19.4701C19.7032 18.3541 20.058 16.9996 20.1359 15.4705C20.2267 13.8945 20.2267 9.17506 20.1359 7.59907ZM18.0675 17.1615C17.73 17.9963 17.0767 18.6395 16.2242 18.976C14.9478 19.4743 11.9188 19.3593 10.5082 19.3593C9.09762 19.3593 6.06437 19.4701 4.79222 18.976C3.94412 18.6438 3.29074 18.0006 2.9489 17.1615C2.44264 15.9049 2.55947 12.9233 2.55947 11.5348C2.55947 10.1462 2.44697 7.16035 2.9489 5.90808C3.28641 5.07323 3.93979 4.43006 4.79222 4.09357C6.06869 3.59522 9.09762 3.71022 10.5082 3.71022C11.9188 3.71022 14.9521 3.59947 16.2242 4.09357C17.0723 4.4258 17.7257 5.06898 18.0675 5.90808C18.5738 7.16461 18.457 10.1462 18.457 11.5348C18.457 12.9233 18.5738 15.9092 18.0675 17.1615Z" fill="white"/>
</g>
<defs>
<clipPath id="clip0_1_1924">
<rect width="19.3851" height="21.8083" fill="white" transform="translate(0.811523 0.634766)"/>
</clipPath>
</defs>
</svg>
