<svg width="23" height="17" viewBox="0 0 23 17" fill="none" xmlns="http://www.w3.org/2000/svg">
<g clip-path="url(#clip0_171_291)">
<path d="M16.5659 14.6124C17.069 14.6124 17.5713 14.6184 18.0744 14.6117C20.4154 14.5811 22.3777 12.6721 22.4939 10.3158C22.6138 7.87154 20.8567 5.76692 18.4796 5.52802C18.2369 5.50338 18.1266 5.43022 18.0427 5.19056C17.0432 2.34385 14.4822 0.508748 11.5197 0.499789C8.54315 0.49083 5.96599 2.32444 4.95616 5.18608C4.87305 5.42126 4.77008 5.50562 4.52222 5.52802C2.34517 5.72586 0.579988 7.62367 0.502761 9.82535C0.421857 12.148 1.98257 14.2279 4.18978 14.5116C5.51881 14.6819 6.88167 14.5945 8.22909 14.6012C8.54462 14.6027 8.74688 14.3325 8.74099 14.0286C8.73511 13.7225 8.52917 13.5052 8.20556 13.4761C8.0842 13.4649 7.96064 13.4724 7.83781 13.4724C6.82136 13.4687 5.80197 13.5067 4.78773 13.4515C2.95121 13.3515 1.55598 11.7814 1.61997 9.95301C1.68543 8.07834 3.19981 6.61952 5.06133 6.63893C5.62766 6.64491 5.71813 6.57473 5.87479 6.00284C6.59115 3.39653 8.86603 1.62862 11.4969 1.63385C14.1564 1.63907 16.4203 3.40773 17.13 6.03569C17.2727 6.56353 17.3793 6.6464 17.9324 6.63819C18.6532 6.62773 19.3151 6.82035 19.9065 7.23844C21.1377 8.10895 21.6592 9.62377 21.2282 11.0535C20.795 12.4899 19.5299 13.4448 17.9927 13.4687C16.9638 13.4843 15.9341 13.4687 14.9044 13.4739C14.4933 13.4761 14.2631 13.6814 14.255 14.0256C14.2469 14.384 14.4889 14.608 14.9088 14.6117C15.4604 14.6177 16.0128 14.6132 16.5644 14.6139L16.5659 14.6124ZM12.0573 8.58602C12.2191 8.70099 12.3192 8.76669 12.4148 8.83986C13.0318 9.3102 13.646 9.78428 14.266 10.2516C14.5808 10.4891 14.9132 10.4637 15.1148 10.2009C15.3148 9.94032 15.2589 9.58569 14.9596 9.355C13.9446 8.57333 12.9237 7.79987 11.9073 7.01969C11.6359 6.81139 11.3726 6.80393 11.1004 7.01222C10.0833 7.79091 9.06387 8.56661 8.04816 9.34753C7.74734 9.57897 7.68336 9.93136 7.87679 10.1927C8.07685 10.4629 8.40267 10.4958 8.72187 10.2569C9.37204 9.76935 10.0156 9.27213 10.6628 8.78088C10.7356 8.72563 10.8173 8.68382 10.9416 8.60618C10.9416 8.79656 10.9416 8.93019 10.9416 9.06383C10.9416 11.3275 10.9401 13.5904 10.9431 15.854C10.9431 16.2646 11.1527 16.4975 11.4947 16.4998C11.8352 16.502 12.0514 16.2654 12.0551 15.8622C12.061 15.1656 12.0573 14.4691 12.0573 13.7733C12.0573 12.0703 12.0573 10.3674 12.0573 8.58602Z" fill="white"/>
</g>
<defs>
<clipPath id="clip0_171_291">
<rect width="22" height="16" fill="white" transform="translate(0.5 0.5)"/>
</clipPath>
</defs>
</svg>
