<svg width="20" height="20" viewBox="0 0 20 20" fill="none" xmlns="http://www.w3.org/2000/svg">
<g id="linkedin logo" clip-path="url(#clip0_1_1928)">
<path id="Vector" d="M4.96131 19.0198V6.75808H0.805264L0.805264 19.0198H4.96131ZM2.88383 5.08295C4.33311 5.08295 5.23523 4.1414 5.23523 2.96477C5.20822 1.76161 4.33317 0.846191 2.91133 0.846191C1.48971 0.846191 0.560059 1.76163 0.560059 2.96477C0.560059 4.14145 1.46195 5.08295 2.85669 5.08295H2.8837H2.88383ZM7.26167 19.0198H11.4177V12.1722C11.4177 11.8058 11.4447 11.4397 11.5545 11.1777C11.8549 10.4455 12.5388 9.68717 13.6868 9.68717C15.1907 9.68717 15.7924 10.8116 15.7924 12.4599V19.0197H19.9482V11.9889C19.9482 8.22263 17.8978 6.47021 15.1634 6.47021C12.9213 6.47021 11.937 7.69914 11.3901 8.53616H11.4178V6.75783H7.26177C7.31631 7.90839 7.26177 19.0195 7.26177 19.0195L7.26167 19.0198Z" fill="white"/>
</g>
<defs>
<clipPath id="clip0_1_1928">
<rect width="19.3851" height="18.1735" fill="white" transform="translate(0.560059 0.846191)"/>
</clipPath>
</defs>
</svg>
