<svg width="12" height="14" viewBox="0 0 12 14" fill="none" xmlns="http://www.w3.org/2000/svg">
<g clip-path="url(#clip0_1_147)">
<path d="M7.76092 0C8.04616 0.0701952 8.30602 0.185589 8.50309 0.421513C8.69882 0.656411 8.79702 0.926576 8.80069 1.23372C8.80236 1.36487 8.80069 1.49567 8.80069 1.64085C8.86015 1.64085 8.90791 1.64085 8.95534 1.64085C9.56892 1.64085 10.1822 1.63812 10.7957 1.64188C11.3051 1.64496 11.7667 1.97197 11.922 2.43081C12.1014 2.96018 11.9688 3.47517 11.5586 3.82375C11.4908 3.88128 11.4163 3.93983 11.3348 3.9686C11.2129 4.01208 11.1722 4.07988 11.1628 4.21342C11.1107 4.95783 11.0466 5.70156 10.9858 6.44563C10.9273 7.15785 10.8672 7.86974 10.8094 8.58196C10.7607 9.1853 10.7149 9.78897 10.6661 10.3923C10.608 11.109 10.5526 11.826 10.4868 12.542C10.4661 12.7666 10.446 12.9988 10.3752 13.2097C10.2169 13.6812 9.77801 13.9853 9.29403 13.999C9.27165 13.9997 9.2496 13.9997 9.22723 13.9997C7.07586 13.9997 4.92417 14.0003 2.7728 13.9993C2.21066 13.9993 1.75641 13.6781 1.59642 13.1337C1.52828 12.9019 1.51793 12.6505 1.49722 12.4064C1.41438 11.4315 1.33689 10.456 1.25907 9.48046C1.19293 8.65489 1.13047 7.82865 1.06401 7.00308C0.986515 6.04124 0.907021 5.07973 0.823518 4.11857C0.820178 4.07851 0.774418 4.02612 0.735673 4.00797C0.136458 3.7289 -0.135761 3.10811 0.0663158 2.46984C0.220629 1.9819 0.678557 1.64531 1.20462 1.64188C1.81353 1.63812 2.42276 1.64085 3.03166 1.64085C3.08043 1.64085 3.12919 1.64085 3.19934 1.64085C3.19934 1.54327 3.20435 1.44944 3.19867 1.35665C3.15725 0.674901 3.59146 0.121215 4.2164 0.0130118C4.22441 0.0116421 4.23176 0.0044514 4.23944 0C5.41316 0 6.58721 0 7.76092 0ZM1.64552 4.10762C1.64552 4.14015 1.64385 4.16651 1.64552 4.19254C1.69963 4.87326 1.75441 5.55398 1.80852 6.23436C1.8653 6.94693 1.92007 7.65949 1.97786 8.37172C2.03598 9.08873 2.0971 9.80507 2.15522 10.5221C2.21267 11.2343 2.26745 11.9469 2.32523 12.6594C2.33191 12.7406 2.33892 12.8241 2.36297 12.9008C2.42243 13.0905 2.57373 13.1803 2.81656 13.1803C4.93719 13.1803 7.05816 13.1803 9.17879 13.1803C9.20551 13.1803 9.23224 13.1813 9.25896 13.1796C9.48876 13.1659 9.63906 13.021 9.65977 12.7865C9.69016 12.442 9.71622 12.0969 9.74461 11.752C9.81241 10.9309 9.88189 10.1098 9.94835 9.2887C10.0065 8.57169 10.0596 7.85467 10.1177 7.13765C10.1842 6.31654 10.2543 5.49543 10.3214 4.67431C10.3368 4.48633 10.3475 4.29766 10.3605 4.10727H1.64552V4.10762ZM6.00068 3.28171C7.56485 3.28171 9.12903 3.28205 10.6932 3.28068C10.7724 3.28068 10.8542 3.27486 10.9297 3.2526C11.0887 3.20604 11.2016 3.03894 11.2016 2.87081C11.2016 2.70269 11.0883 2.53661 10.929 2.48936C10.8579 2.46813 10.7804 2.46163 10.7059 2.46163C7.56853 2.46026 4.43117 2.46026 1.29414 2.46163C1.21965 2.46163 1.14216 2.46813 1.07102 2.48936C0.912031 2.53696 0.799135 2.70337 0.799135 2.8715C0.799135 3.03962 0.912365 3.20638 1.07169 3.25295C1.14717 3.27486 1.22901 3.28068 1.30817 3.28068C2.87234 3.28205 4.43651 3.28171 6.00068 3.28171ZM3.99996 1.63127H8.00174C8.00174 1.508 8.00308 1.39466 8.00174 1.28098C7.99807 0.990266 7.83707 0.822824 7.55417 0.820085C7.27861 0.817688 7.00305 0.8194 6.72716 0.8194C5.97129 0.8194 5.21542 0.818715 4.45989 0.819743C4.18834 0.820085 4.01599 0.971775 4.00163 1.22653C3.99428 1.35768 4.00029 1.48985 4.00029 1.63093L3.99996 1.63127Z" fill="#D1D5DB"/>
<path d="M4.39649 11.8228C4.40484 12.1659 4.25855 12.3556 4.00503 12.3587C3.79327 12.3615 3.61591 12.2036 3.60121 11.9869C3.5628 11.4191 3.52907 10.8511 3.494 10.283C3.44323 9.45607 3.39279 8.62913 3.34269 7.8022C3.30361 7.1523 3.2652 6.50239 3.22679 5.85283C3.21677 5.6847 3.20307 5.51658 3.20073 5.34845C3.19739 5.1091 3.35972 4.93139 3.57917 4.92317C3.8093 4.91461 3.98366 5.07897 3.99869 5.32208C4.07117 6.51266 4.14198 7.70324 4.21479 8.89348C4.27491 9.87963 4.33704 10.8654 4.39683 11.8232L4.39649 11.8228Z" fill="#D1D5DB"/>
<path d="M8.80021 5.4219C8.74944 6.24438 8.69934 7.05762 8.64957 7.87086C8.61049 8.51152 8.57242 9.15218 8.53367 9.79318C8.48925 10.5249 8.44616 11.2563 8.39873 11.9877C8.38437 12.2099 8.20033 12.3671 7.98088 12.3586C7.77213 12.3503 7.59744 12.1788 7.60445 11.96C7.61681 11.5689 7.64353 11.1779 7.66691 10.7872C7.70633 10.1236 7.74808 9.46035 7.78883 8.79709C7.83926 7.97016 7.8897 7.14322 7.94013 6.31629C7.95951 5.99819 7.97921 5.68008 7.99925 5.36198C8.01729 5.07914 8.17695 4.91341 8.42144 4.923C8.65425 4.9319 8.80355 5.11612 8.80021 5.39006C8.80021 5.40375 8.80021 5.41745 8.80021 5.4219Z" fill="#D1D5DB"/>
<path d="M5.60039 8.6295C5.60039 7.53651 5.60006 6.44387 5.60073 5.35087C5.60073 5.12659 5.74001 4.9547 5.93808 4.92559C6.14183 4.89546 6.33221 5.02079 6.38599 5.22555C6.39835 5.2728 6.39901 5.32451 6.39901 5.37416C6.39968 7.55089 6.39968 9.72729 6.39935 11.904C6.39935 12.1807 6.23769 12.3615 5.9952 12.3594C5.75938 12.3574 5.60039 12.1773 5.60039 11.9085C5.59973 10.8155 5.60039 9.72284 5.60039 8.62985V8.6295Z" fill="#D1D5DB"/>
</g>
<defs>
<clipPath id="clip0_1_147">
<rect width="12" height="14" fill="white"/>
</clipPath>
</defs>
</svg>
