<svg width="23" height="18" viewBox="0 0 23 18" fill="none" xmlns="http://www.w3.org/2000/svg">
<g id="Twitter logo" clip-path="url(#clip0_1_1932)">
<path id="Vector" d="M22.694 2.12326C21.8774 2.46792 21.0112 2.69415 20.1242 2.79444C21.0481 2.26691 21.7574 1.43156 22.0915 0.436239C21.2132 0.93275 20.2523 1.28257 19.2503 1.47059C18.4341 0.642217 17.2714 0.124512 15.9845 0.124512C13.5135 0.124512 11.5101 2.03302 11.5101 4.38691C11.5101 4.72104 11.5497 5.04632 11.626 5.35837C7.90749 5.18056 4.61069 3.48363 2.40389 0.904762C2.01883 1.5343 1.7982 2.26659 1.7982 3.04765C1.7982 4.52651 2.58815 5.83112 3.78862 6.59554C3.07811 6.57434 2.38323 6.39152 1.76199 6.06234C1.76174 6.08019 1.76174 6.09804 1.76174 6.11598C1.76174 8.1812 3.30399 9.90402 5.35073 10.2956C4.69187 10.4663 4.00077 10.4913 3.33023 10.3686C3.89954 12.0621 5.55194 13.2944 7.50974 13.3289C5.97848 14.4721 4.04922 15.1535 1.95307 15.1535C1.59187 15.1535 1.23578 15.1333 0.885742 15.094C2.86578 16.3034 5.21758 17.009 7.74427 17.009C15.9741 17.009 20.4743 10.5139 20.4743 4.88125C20.4743 4.69637 20.4701 4.51255 20.4614 4.32978C21.3373 3.72652 22.0933 2.97933 22.694 2.12326Z" fill="white"/>
</g>
<defs>
<clipPath id="clip0_1_1932">
<rect width="21.8083" height="16.962" fill="white" transform="translate(0.885742 0.0578613)"/>
</clipPath>
</defs>
</svg>
